<svg width="51" height="49" viewBox="0 0 51 49" fill="none" xmlns="http://www.w3.org/2000/svg">
<path d="M26.8156 0.30444C26.4283 0.583492 26.3689 0.637853 26.287 0.79731C26.2361 0.89516 26.0636 1.13072 25.9025 1.3228C25.6679 1.60547 25.6028 1.70332 25.5746 1.83016C25.5548 1.91714 25.4474 2.16358 25.3399 2.3774C25.029 2.98623 24.9272 3.3269 24.8594 3.95023C24.8424 4.12056 24.7944 4.33438 24.7435 4.47934C24.67 4.68591 24.6615 4.7439 24.6756 4.91423C24.6869 5.01932 24.7039 5.38173 24.7152 5.72239L24.7378 6.33848L24.9159 7.02704C25.1534 7.93668 25.2834 8.35344 25.4869 8.85356C25.5802 9.08188 25.6792 9.37905 25.7103 9.51314C25.7385 9.64723 25.8233 9.88641 25.8968 10.0422C26.0721 10.4155 26.1626 10.6765 26.2756 11.1403C26.3237 11.3505 26.4142 11.6187 26.4707 11.7383C26.5301 11.8579 26.629 12.108 26.6912 12.2892C26.7562 12.474 26.858 12.7277 26.9173 12.8509C27.053 13.1263 27.1294 13.3836 27.1887 13.7533C27.2142 13.9055 27.2792 14.2063 27.3329 14.4237C27.4827 15.0217 27.4912 15.0869 27.5195 15.9241C27.5477 16.7504 27.5647 16.9134 27.6156 16.8917C27.6326 16.8844 27.6693 16.8228 27.6976 16.754C27.7371 16.6561 27.7456 16.5764 27.7343 16.359C27.7258 16.2104 27.7061 15.7103 27.6919 15.25C27.6637 14.3621 27.658 14.286 27.5732 13.8584C27.5449 13.7098 27.4827 13.3039 27.4347 12.9632C27.3216 12.1478 27.2622 11.8615 27.1237 11.4448C27.0417 11.2019 26.9937 10.9773 26.9513 10.6656C26.8834 10.1473 26.8297 9.9444 26.6375 9.52039C26.5046 9.23046 26.4933 9.18335 26.499 8.99852C26.5018 8.88618 26.4848 8.74122 26.4594 8.66874C26.4226 8.54552 26.4226 8.53102 26.4764 8.44405C26.5074 8.39331 26.5499 8.34982 26.5725 8.34982C26.6205 8.34982 26.7845 8.58538 26.9117 8.84269C26.9711 8.96228 27.0813 9.14711 27.1548 9.25946C27.3414 9.53488 27.3781 9.63636 27.3781 9.87554C27.3781 10.2307 27.4997 10.5931 27.7682 11.0389C27.8644 11.1983 27.9803 11.452 28.0425 11.6332C28.099 11.8108 28.1781 12.0101 28.2121 12.0826C28.3704 12.3979 28.6757 13.1263 28.6955 13.2242C28.7068 13.2821 28.752 13.4307 28.8001 13.5467C28.8453 13.6663 28.9018 13.8475 28.9244 13.9453C28.9471 14.0468 28.981 14.1628 29.0008 14.2027C29.0206 14.2425 29.0658 14.3875 29.1025 14.5288C29.1393 14.6665 29.1958 14.8296 29.2326 14.884C29.3202 15.0181 29.357 15.2029 29.357 15.5182C29.357 15.7574 29.3683 15.8117 29.4757 16.0799C29.5775 16.33 29.5972 16.4206 29.6114 16.667C29.6227 16.8482 29.6538 17.0294 29.6962 17.1562C29.7556 17.3302 29.764 17.4136 29.764 17.8339C29.7669 18.2869 29.7697 18.3159 29.8347 18.4029C29.8715 18.4537 29.9252 18.5044 29.9563 18.5189C30.058 18.5588 30.0156 19.3053 29.8658 20.0772C29.8177 20.3128 29.7697 20.5194 29.7556 20.5375C29.7188 20.5846 29.5831 20.5375 29.5831 20.4722C29.5831 20.4469 29.5266 20.3635 29.4559 20.2874C29.3852 20.2149 29.3287 20.128 29.3287 20.0953C29.3287 20.0591 29.2976 19.9141 29.258 19.7692C29.2184 19.6242 29.1676 19.3415 29.1449 19.1386C29.0941 18.6892 29.0799 18.6204 28.9442 18.2398C28.8792 18.0514 28.834 17.8557 28.8227 17.7143C28.8001 17.4607 28.769 17.3991 28.6191 17.3012C28.475 17.207 28.4071 17.0801 28.3817 16.8772C28.3704 16.7793 28.3393 16.638 28.311 16.5583C28.2856 16.4786 28.2403 16.2829 28.2121 16.1234C28.1697 15.877 28.147 15.8117 28.0538 15.6921C27.935 15.5435 27.8785 15.5363 27.952 15.6813C28.0368 15.848 28.0622 16.1995 28.0453 16.9207C27.9859 19.0915 27.8276 20.61 27.5986 21.1934C27.5506 21.313 27.4516 21.6174 27.3781 21.8675C27.2311 22.3712 27.1407 22.6104 27.0135 22.8496C26.9682 22.9366 26.9089 23.1214 26.8834 23.2628C26.8552 23.4005 26.7958 23.6143 26.7506 23.7303C26.7025 23.8462 26.6347 24.0673 26.5951 24.2195C26.5583 24.3717 26.4848 24.5928 26.434 24.7124C26.3802 24.832 26.3322 24.9878 26.3209 25.0567C26.3124 25.1255 26.2474 25.3248 26.1795 25.4988C26.1117 25.6728 26.0156 25.9808 25.9647 26.1874C25.9138 26.3939 25.8064 26.8288 25.7216 27.1586C25.6396 27.4884 25.552 27.8943 25.5265 28.0646C25.5039 28.2349 25.4445 28.5104 25.3993 28.6807C25.3541 28.851 25.3145 29.0467 25.3145 29.1192C25.3145 29.2932 25.3456 29.478 25.3739 29.478C25.4247 29.478 25.5548 29.2026 25.6707 28.8402C25.7385 28.63 25.8629 28.3147 25.9477 28.1407C26.171 27.6768 26.2813 27.3761 26.4113 26.8796C26.5414 26.3831 26.6771 26.0207 26.9089 25.5532C27.1068 25.1473 27.1633 24.9479 27.2707 24.3137C27.3668 23.7375 27.4403 23.4331 27.6863 22.6104C27.9605 21.7008 27.9972 21.5051 28.0283 20.7984C28.0736 19.8562 28.1018 19.675 28.2403 19.3669C28.2658 19.3126 28.2827 19.1785 28.2827 19.019C28.2827 18.5914 28.3449 18.4609 28.5456 18.4609C28.6729 18.4609 28.6813 18.5116 28.6615 19.0226C28.6474 19.327 28.6531 19.472 28.6898 19.6423C28.7294 19.8344 28.7294 19.9902 28.7068 20.9289C28.6757 22.0922 28.6559 22.335 28.5485 22.8387C28.5117 23.0236 28.4721 23.2845 28.4608 23.4186C28.4467 23.6687 28.2432 24.7595 28.0142 25.8177C27.9435 26.1475 27.8728 26.5715 27.8559 26.76C27.8417 26.9484 27.8022 27.1767 27.7711 27.2673C27.7428 27.3579 27.6693 27.608 27.6071 27.8291C27.1181 29.6157 27.0643 29.7897 26.8156 30.3296C26.6771 30.6268 26.5866 30.9784 26.5866 31.203C26.5866 31.3589 26.5894 31.3625 26.6658 31.3408C26.8184 31.29 26.8665 31.2538 26.9089 31.1523C26.9541 31.0363 27.1209 30.9312 27.3697 30.8551C27.4884 30.8189 27.5336 30.7827 27.6326 30.6341C27.6976 30.5362 27.8361 30.3731 27.9379 30.2717C28.2488 29.9709 28.8849 28.9453 29.0969 28.4053C29.1449 28.2821 29.2552 28.0791 29.3428 27.9523C29.5351 27.6696 29.7103 27.2238 29.8658 26.6186C29.9732 26.1982 30.27 24.7776 30.5188 23.4802C30.581 23.1613 30.6545 22.7953 30.6856 22.6648C30.7506 22.3821 30.7817 22.0052 30.8439 20.6462C30.9004 19.4213 30.8891 18.9791 30.7704 18.1347C30.7224 17.7868 30.6658 17.2468 30.6432 16.9388C30.6206 16.6271 30.5782 16.2611 30.5499 16.1234C30.5188 15.9821 30.4425 15.6088 30.3775 15.2899C30.1937 14.3802 30.0467 13.833 29.7471 12.9161C29.5266 12.242 29.3598 11.8108 29.2382 11.5825C29.1534 11.423 29.063 11.1766 28.9782 10.883C28.9499 10.7779 28.8679 10.633 28.7548 10.4844C28.6191 10.3068 28.5569 10.1872 28.4835 9.96252C28.4326 9.80306 28.3054 9.50589 28.1979 9.30294C28.0933 9.1 27.9661 8.80283 27.9152 8.63974C27.8389 8.40056 27.7965 8.3172 27.6834 8.19399C27.5364 8.03815 27.494 7.94393 27.4375 7.64313C27.4177 7.54166 27.3414 7.33146 27.2679 7.17201C27.0757 6.76611 27.0474 6.69001 26.9993 6.42545C26.9767 6.29861 26.8749 5.99057 26.776 5.74051C26.5866 5.26213 26.5188 4.96859 26.434 4.28364C26.4085 4.09157 26.3491 3.80889 26.3011 3.64943C26.2163 3.3885 26.2106 3.33777 26.2163 2.96811C26.2191 2.46075 26.2643 1.88452 26.318 1.65621C26.3407 1.55836 26.4113 1.37716 26.4735 1.25032C26.5357 1.1271 26.6177 0.94952 26.6544 0.855295C26.7251 0.681341 26.8693 0.485643 27.0898 0.271824C27.1972 0.166727 27.2848 0.0253891 27.2594 2.0759e-05C27.2538 -0.00722733 27.0559 0.130486 26.8156 0.30444ZM26.2898 7.1104C26.3209 7.17925 26.4029 7.33871 26.4707 7.4728C26.6488 7.82071 26.6827 7.93306 26.6375 8.04902C26.6177 8.10339 26.5612 8.17587 26.5159 8.21211C26.3831 8.30996 26.3124 8.2411 26.2135 7.92218C26.0947 7.54166 26.0608 7.29522 26.1032 7.11402C26.1456 6.93644 26.205 6.93644 26.2898 7.1104ZM29.6962 22.5271C29.6962 22.5742 29.7103 22.7663 29.7273 22.9547C29.7527 23.2374 29.7753 23.9477 29.7866 24.8936C29.7895 24.9951 29.7669 25.082 29.7132 25.1799C29.6227 25.3538 29.6001 25.4662 29.5407 26.0134C29.4898 26.499 29.4418 26.6512 29.275 26.8433C29.1619 26.9738 28.899 27.1042 28.7972 27.0789C28.7266 27.0608 28.7153 26.5788 28.7774 26.3577C28.8312 26.1729 28.8566 26.0605 28.9188 25.7706C28.9471 25.6365 28.9782 25.564 29.0064 25.564C29.0828 25.564 29.1138 25.372 29.128 24.7957C29.1449 24.2775 29.1506 24.2195 29.21 24.1253C29.3202 23.9477 29.3372 23.8535 29.3541 23.3352C29.3711 22.9257 29.3824 22.8061 29.4276 22.7047C29.4587 22.6394 29.4955 22.5524 29.5124 22.5162C29.5294 22.4727 29.5718 22.4474 29.617 22.4474C29.6792 22.4474 29.6962 22.4655 29.6962 22.5271Z" fill="#404040"/>
<path d="M27.1024 15.1061C26.8593 15.8237 26.6445 16.3383 26.4777 16.6065C26.3872 16.7551 26.2685 16.9689 26.2176 17.0776C26.0706 17.3929 25.9575 17.5741 25.8077 17.7263C25.6155 17.922 25.5816 17.98 25.542 18.1648C25.525 18.2518 25.477 18.3641 25.4402 18.4112C25.4006 18.462 25.2621 18.683 25.1349 18.9077C25.0049 19.1288 24.8579 19.3571 24.807 19.4187C24.7561 19.4767 24.6543 19.6398 24.578 19.7811C24.5017 19.9188 24.3971 20.1037 24.3462 20.187C24.2982 20.2704 24.202 20.4552 24.1342 20.6038C24.0692 20.7487 23.9335 21.0169 23.8374 21.1945C23.7384 21.3757 23.631 21.6221 23.5999 21.7381C23.4444 22.3143 23.2776 22.8869 23.1957 23.1334C23.0091 23.7023 22.9243 24.5323 22.9497 25.5252C22.961 25.8731 22.9865 26.2718 23.0091 26.4131C23.0289 26.5508 23.0572 26.7864 23.0685 26.935C23.0826 27.1307 23.1504 27.4279 23.3116 28.0113C23.4331 28.4571 23.5547 28.8739 23.5801 28.9391C23.6056 29.0007 23.6451 29.1602 23.6649 29.287C23.7158 29.5914 23.8119 29.798 24.0579 30.1278C24.2134 30.3343 24.2755 30.4467 24.3123 30.588C24.3377 30.6931 24.3688 30.7801 24.3801 30.7801C24.4282 30.7801 24.9427 31.1969 25.0105 31.2911C25.084 31.3926 25.0925 31.3962 25.1575 31.3418C25.2876 31.2331 25.3045 31.0954 25.2367 30.7475C25.2028 30.5772 25.1632 30.3271 25.1491 30.1966C25.1349 30.0662 25.0812 29.798 25.0303 29.5987C24.9399 29.2399 24.9399 29.2363 24.937 28.4607C24.9342 28.0331 24.9455 27.2938 24.9568 26.8226C24.9823 25.8478 24.971 25.8115 24.807 26.2464C24.7137 26.4965 24.7137 26.4965 24.7081 27.1089C24.7024 27.7105 24.6798 27.9207 24.5639 28.4535L24.5158 28.6745L24.3886 28.6999C24.2755 28.7216 24.2558 28.7144 24.2105 28.6383C24.137 28.5151 24.0494 28.1672 23.9985 27.7903C23.9759 27.6163 23.9278 27.4061 23.8967 27.3228C23.8515 27.2068 23.8374 27.0872 23.8261 26.7212C23.8063 26.1341 23.8572 25.3187 23.9278 25.0179C23.9561 24.8874 23.99 24.612 24.0013 24.4018C24.0324 23.7821 24.1625 22.9014 24.3462 22.1005C24.448 21.6475 24.5271 21.4264 24.677 21.1945C24.7448 21.0858 24.8296 20.9082 24.8607 20.7995C24.8918 20.6908 24.9597 20.5168 25.0105 20.4117C25.0586 20.3066 25.1208 20.1399 25.1462 20.0384C25.1999 19.8355 25.2791 19.7413 25.4374 19.705L25.542 19.6833V19.9225C25.542 20.0529 25.5279 20.361 25.5109 20.6074C25.4883 20.9444 25.4883 21.1075 25.5137 21.2634C25.5307 21.3757 25.5533 21.4663 25.5646 21.4663C25.6155 21.4627 25.6805 21.3576 25.7455 21.1764C25.7823 21.0677 25.8727 20.872 25.9406 20.7415C26.0763 20.4842 26.0932 20.4407 26.2063 19.9805C26.2487 19.8101 26.3957 19.3716 26.5371 19.002C26.7689 18.3859 26.7915 18.3061 26.8141 18.0307C26.8339 17.8096 26.8622 17.6719 26.9215 17.5233C27.1335 17.0015 27.2805 15.8382 27.2381 15.0336L27.224 14.7437L27.1024 15.1061Z" fill="#404040"/>
<path d="M14.5585 31.6079C14.3974 31.6441 14.2504 31.7202 14.1514 31.8217C14.0864 31.8905 14.0864 31.9014 14.0977 32.3435C14.1119 32.9306 14.1373 32.9886 14.3719 32.9886C14.7055 32.9886 15.0928 33.1408 15.2398 33.3293C15.3048 33.4126 15.3387 33.5032 15.3613 33.6482C15.3981 33.8693 15.4716 34.0287 15.7288 34.4382C15.825 34.5868 15.9578 34.8188 16.0313 34.9529C16.1981 35.2681 16.4497 35.5472 16.6278 35.6161C16.7296 35.6559 16.7918 35.7139 16.8794 35.8444C16.9501 35.9458 17.0716 36.0691 17.1762 36.1415C17.2752 36.2068 17.4108 36.3082 17.4759 36.3662C17.5409 36.4206 17.6935 36.5329 17.8151 36.609C17.9366 36.6888 18.1176 36.812 18.2193 36.8845C18.3211 36.9569 18.4964 37.0548 18.6094 37.1055C18.7225 37.1526 18.9006 37.2541 19.0052 37.3338C19.1098 37.4136 19.2766 37.5042 19.3784 37.5368C19.4801 37.5694 19.8165 37.6999 20.1275 37.8267C20.4384 37.9536 20.9218 38.1493 21.2017 38.2616C21.4816 38.3739 21.7586 38.508 21.8208 38.5624C21.9537 38.6784 22.0526 38.8668 22.078 39.0516L22.0978 39.1894L11.3189 39.1857C0.58234 39.1821 0.310958 39.1857 0.079153 39.2981L0 39.3379L0.0734993 39.3851C0.113076 39.4141 0.342054 39.5119 0.58234 39.6025C0.822626 39.6967 1.16468 39.8598 1.3456 39.9649C1.52652 40.0736 1.7555 40.186 1.85444 40.2186C2.01558 40.2657 4.66155 40.2729 25.3572 40.2729C45.7137 40.2729 48.713 40.2657 48.9533 40.2186C49.5357 40.1062 50.4233 39.791 50.7088 39.5916C50.8332 39.5047 50.8389 39.4938 50.8049 39.4249C50.7823 39.3851 50.7117 39.3126 50.6438 39.2691L50.5223 39.1857H40.4783H30.4372L30.4626 39.0371C30.5446 38.5805 30.7905 38.3595 31.4973 38.1203C31.7036 38.0478 31.9185 37.9681 31.975 37.9354C32.0315 37.9064 32.2068 37.8485 32.3651 37.8086C32.6111 37.747 32.7213 37.6926 33.1595 37.41C33.4393 37.2324 33.7192 37.0765 33.7814 37.062C33.9143 37.0331 34.0075 36.9751 34.2196 36.7939C34.3044 36.7214 34.6295 36.4786 34.9404 36.2503C35.2514 36.0256 35.5821 35.7719 35.6782 35.6849C35.9157 35.4711 36.204 35.0652 36.4358 34.6158C36.5433 34.4092 36.662 34.1773 36.7016 34.1012C36.7411 34.0287 36.7892 33.9671 36.809 33.9671C36.8316 33.9671 36.8486 33.9526 36.8486 33.9309C36.8486 33.8439 36.973 33.4851 37.038 33.3836C37.1284 33.2459 37.3207 33.1191 37.5581 33.043C37.6655 33.0067 37.7701 32.9451 37.8154 32.8908C37.9115 32.7712 37.9624 32.5066 37.9454 32.195C37.9256 31.876 37.8719 31.7456 37.7193 31.6658C37.6033 31.6079 37.0012 31.6042 26.7142 31.6151C20.7296 31.6224 15.5762 31.6187 15.2652 31.6042C14.9543 31.5897 14.6377 31.5934 14.5585 31.6079ZM16.3112 31.9376C16.4016 32.0101 16.5797 32.3182 16.5797 32.4015C16.5797 32.4704 16.6052 32.4523 16.6815 32.3399C16.7776 32.195 16.9501 32.1152 17.2214 32.0935L17.4504 32.0717L17.4702 32.2493C17.4985 32.5175 17.5041 32.5247 17.6624 32.6625L17.8094 32.7893L17.8179 33.0176C17.8236 33.2061 17.8349 33.2423 17.8773 33.2423C17.9055 33.2423 18.0101 33.2749 18.1063 33.3148C18.3239 33.4054 18.4257 33.4054 18.5218 33.322C18.5925 33.264 18.7904 33.2604 21.654 33.2604C24.5233 33.2604 24.7184 33.264 24.888 33.3257C25.117 33.409 25.3205 33.409 25.4845 33.3293C25.6004 33.2677 25.7926 33.264 27.7742 33.2495C28.9644 33.2423 30.0555 33.2459 30.1997 33.2604L30.4598 33.2858V33.4235C30.4598 33.6446 30.3976 33.7062 30.1319 33.746C29.9509 33.775 29.8746 33.7714 29.7672 33.7315C29.4902 33.6228 29.3064 33.6772 29.0944 33.9272C28.9361 34.1157 28.7665 34.2099 28.5347 34.2425C28.3566 34.2643 28.3509 34.2643 28.317 34.1701C28.2972 34.1157 28.2831 34.0432 28.2831 34.007C28.2831 33.8693 28.2181 33.8185 28.0371 33.8149C27.9071 33.8113 27.8364 33.833 27.7601 33.891C27.6244 33.9925 27.4039 33.9925 27.223 33.891C27.0506 33.7932 26.8385 33.8113 26.7537 33.9272C26.7226 33.9671 26.6859 34.0034 26.6717 34.0034C26.6039 34.0034 26.652 34.0831 26.7481 34.1338C26.8357 34.1809 26.8866 34.1846 27.0675 34.1519C27.2484 34.1157 27.3248 34.1193 27.5 34.1664C27.8449 34.257 28.1219 34.3947 28.2831 34.5542C28.4499 34.7209 28.775 34.797 29.3432 34.8006C29.6372 34.8043 29.7898 34.8405 30.016 34.971L30.1771 35.0652V35.3624V35.6632L30.0527 35.8299C29.982 35.9205 29.8916 36.0074 29.8464 36.0219C29.7107 36.0691 29.1311 36.0473 28.8485 35.9821C28.7015 35.9495 28.4866 35.8661 28.3679 35.8009C28.252 35.732 28.1106 35.6595 28.0541 35.6378C27.9891 35.6088 27.8704 35.4928 27.7431 35.3298C27.4718 34.9818 27.3813 34.942 27.076 35.0326C26.8951 35.0906 26.7933 35.0942 26.4202 35.0761L25.9792 35.0507L25.917 35.1775C25.8802 35.25 25.8519 35.3189 25.8519 35.337C25.8519 35.3515 26.0216 35.4747 26.2279 35.6088C26.5926 35.848 26.6124 35.8589 26.9007 35.8915C27.1891 35.9277 27.8477 36.0944 28.1276 36.2031C28.3933 36.3046 28.5234 36.5076 28.5573 36.8663L28.5742 37.0403L28.7608 37.0983C29.0152 37.178 29.1651 37.3085 29.1538 37.4389C29.1453 37.5295 29.117 37.5513 28.693 37.7434C28.4442 37.8557 28.1333 37.997 28.0004 38.0587C27.6866 38.2 27.5029 38.2326 26.864 38.2652L26.3325 38.2906V38.1819C26.3325 38.1203 26.358 38.0297 26.3891 37.9826C26.4399 37.8992 26.4908 37.8738 26.7961 37.7796C26.9007 37.747 26.9573 37.6419 26.8979 37.5912C26.8159 37.5223 26.6746 37.5585 26.4569 37.6999C26.2958 37.805 26.1714 37.8557 26.0074 37.8847C25.736 37.9318 25.3233 37.9064 25.2102 37.834C25.117 37.7724 24.9671 37.5477 24.741 37.1309C24.5544 36.7902 24.4498 36.667 24.3028 36.6127C24.1615 36.5619 24.0795 36.5656 23.9127 36.6308C23.7261 36.6996 23.6102 36.8156 23.4604 37.0802C23.3812 37.2215 23.2851 37.3375 23.1975 37.4027L23.0562 37.5042L23.1805 37.5984C23.2484 37.6528 23.4406 37.747 23.6046 37.8086C23.9466 37.9354 24.0767 38.0115 24.1982 38.1565L24.283 38.2616L23.8025 38.2725C23.141 38.287 23.0731 38.2725 22.7311 38.0442C22.3918 37.8195 22.3127 37.7832 22.0441 37.7397C21.7784 37.6963 21.6173 37.5948 21.3798 37.3157C21.213 37.12 21.1678 37.0838 21.0519 37.0657C20.7296 37.0186 20.5883 36.9751 20.4384 36.8808C20.2434 36.7576 20.1303 36.5909 20.0851 36.3626C20.0681 36.272 20.0342 36.156 20.0088 36.1089C19.972 36.0328 19.9522 36.0256 19.8335 36.0437C19.7628 36.0546 19.6497 36.098 19.5847 36.1415C19.4462 36.2249 19.2229 36.243 19.1211 36.1778C19.0391 36.1234 18.6716 35.6668 18.6716 35.6197C18.6716 35.5979 18.7056 35.5218 18.7451 35.4457C18.8328 35.2863 18.8215 35.2138 18.7056 35.1812C18.584 35.1485 18.5133 35.029 18.4624 34.7825C18.4229 34.5796 18.4003 34.5397 18.1571 34.2425C17.6879 33.6699 17.7501 33.7207 17.4843 33.6953C17.1564 33.6591 17.0349 33.7062 16.8653 33.9309C16.7409 34.0976 16.7324 34.1157 16.7776 34.1664C16.8031 34.1954 16.8455 34.2208 16.8709 34.2208C16.9246 34.2208 17.032 34.3875 17.032 34.4781C17.032 34.5143 17.0631 34.5868 17.0971 34.6412C17.1592 34.7318 17.1875 34.7427 17.4476 34.7644C17.6031 34.7789 17.7444 34.8006 17.7586 34.8115C17.8066 34.8514 17.7642 35.0543 17.6992 35.0942C17.6681 35.1159 17.5946 35.1884 17.5409 35.2536C17.4278 35.3914 17.2752 35.4493 17.2384 35.3696C17.2271 35.3442 17.1592 35.279 17.0914 35.2283C17.0123 35.1667 16.9218 35.0471 16.8342 34.8804C16.7239 34.6702 16.6956 34.5868 16.6787 34.4056C16.6617 34.2063 16.6532 34.1809 16.5854 34.1628C16.4412 34.1193 16.4101 34.0505 16.4101 33.775C16.4101 33.5467 16.4186 33.5141 16.4978 33.3945C16.5797 33.2749 16.5826 33.2604 16.5373 33.2206C16.5119 33.1952 16.4243 33.1553 16.3451 33.13C16.1472 33.072 15.9974 32.9705 15.938 32.8582C15.8758 32.7349 15.8532 32.2348 15.9013 32.0826C15.972 31.8615 16.1416 31.8036 16.3112 31.9376ZM35.8281 32.4051C36.2012 32.4994 36.3934 32.59 36.4613 32.7059C36.515 32.8002 36.515 32.8074 36.4698 32.898C36.3623 33.1118 35.9157 33.2097 35.3927 33.1408C35.0422 33.0937 34.7058 32.9777 34.6803 32.898C34.6747 32.869 34.6973 32.7422 34.7341 32.619C34.7962 32.4124 34.8104 32.387 34.9121 32.3472C35.0563 32.2892 35.4606 32.3145 35.8281 32.4051ZM27.305 32.3943C29.1255 32.4088 30.5474 32.4051 31.4605 32.3762C32.8231 32.3327 32.8513 32.3327 33.0747 32.4088C33.3941 32.5139 33.6598 32.6878 33.6909 32.8183C33.7051 32.8763 33.7107 32.9306 33.6994 32.9415C33.674 32.9777 19.3586 33.0031 19.3444 32.9669C19.336 32.9488 19.336 32.8799 19.3416 32.8147C19.3557 32.7168 19.3671 32.6987 19.4377 32.6987C19.483 32.6987 19.613 32.648 19.7317 32.59L19.9466 32.4813H21.0688C21.6851 32.4813 22.3381 32.4631 22.5162 32.4414C23.141 32.3653 23.5226 32.3435 24.0286 32.358C24.3085 32.3653 25.7841 32.3834 27.305 32.3943ZM32.6026 34.8767C32.7496 34.971 32.7637 35.0036 32.7241 35.1884C32.6874 35.3624 32.5941 35.4783 32.3397 35.6523C32.2322 35.7284 32.1022 35.8262 32.057 35.8734C31.9524 35.9676 31.7884 36.0328 31.6329 36.0328C31.4916 36.0328 31.4605 36.0582 31.4096 36.2213C31.3757 36.3227 31.3446 36.359 31.2739 36.3771C31.0704 36.4351 30.8669 36.5583 30.6096 36.783C30.1912 37.149 30.1375 37.1744 29.7389 37.1744C29.2725 37.1744 29.1311 37.0765 29.1311 36.7576C29.1311 36.6308 29.1509 36.6199 29.5128 36.6018C29.7757 36.5873 29.8888 36.5402 30.0725 36.3517C30.1375 36.2829 30.1969 36.2684 30.4541 36.2503C30.7538 36.2321 30.7594 36.2285 31.0393 36.0364C31.1948 35.9313 31.3616 35.8009 31.4096 35.7465C31.4577 35.6885 31.5623 35.6305 31.6556 35.6016L31.8167 35.5581V35.3805C31.8167 35.1123 31.8619 35.0217 32.057 34.9021C32.2633 34.7789 32.4301 34.7716 32.6026 34.8767ZM25.5353 38.1493C25.5919 38.1891 25.5947 38.2 25.5608 38.2399C25.5042 38.2978 24.7438 38.2797 24.7297 38.2181C24.7099 38.1456 24.8682 38.1058 25.1735 38.1021C25.3657 38.1021 25.4929 38.1166 25.5353 38.1493Z" fill="#404040"/>
<path d="M26.8757 36.5366C26.7032 36.6163 26.641 36.6779 26.7032 36.7033C26.788 36.7395 27.6813 36.9062 27.7803 36.9062C27.8566 36.9062 27.9131 36.8773 27.9782 36.8012C28.029 36.7432 28.063 36.6852 28.0545 36.6743C28.0064 36.6127 27.557 36.4967 27.3082 36.4859C27.0792 36.4714 26.9972 36.4822 26.8757 36.5366Z" fill="#404040"/>
<path d="M33.4944 43.8291C33.2202 43.8617 33.0025 43.9486 32.717 44.1371C31.9 44.6771 31.5382 45.8005 31.7898 47.0146C32.03 48.1743 32.9375 48.8085 34.1163 48.649C34.4781 48.5983 34.7099 48.4968 34.8287 48.3337C34.8767 48.2685 34.9587 48.0801 35.0096 47.9134C35.0605 47.7503 35.1142 47.5981 35.1283 47.5763C35.1933 47.4821 35.0859 47.2465 34.9955 47.29C34.97 47.3045 34.8993 47.4096 34.8371 47.5292C34.6534 47.8735 34.3707 48.0946 34.0089 48.1779C33.5029 48.2903 32.9318 47.8952 32.6859 47.2683C32.505 46.808 32.4286 46.0252 32.5191 45.565C32.7141 44.5611 33.4915 44.0139 34.2237 44.3654C34.4894 44.4959 34.6223 44.6553 34.7439 44.9851C34.8287 45.2171 34.8626 45.275 34.9135 45.275C35.0322 45.275 35.0435 45.2098 35.0181 44.6191L34.9955 44.0646L34.9163 44.0392C34.7523 43.9849 34.0287 43.8291 33.8647 43.8182C33.7714 43.8109 33.6046 43.8146 33.4944 43.8291Z" fill="#404040"/>
<path d="M19.3491 43.8927L19.1088 43.9144L18.9985 44.295C18.5406 45.8895 18.1476 47.013 18.0487 47.013C17.9752 47.013 17.0876 44.179 17.0876 43.9507C17.0876 43.9036 17.0141 43.8963 16.6042 43.8963C16.0812 43.8963 15.872 43.9362 15.872 44.0413C15.872 44.1355 15.9653 44.2225 16.0642 44.2225C16.2536 44.2225 16.2819 44.3711 16.2593 45.1865C16.2084 46.7955 16.0784 47.8538 15.8946 48.1219C15.8494 48.1872 15.7674 48.2597 15.7137 48.2814C15.6289 48.3176 15.6148 48.3394 15.6232 48.4191L15.6317 48.517L16.1688 48.5278C16.4656 48.5351 16.7483 48.5278 16.7992 48.517C16.8784 48.4988 16.8925 48.4807 16.884 48.401C16.8755 48.3249 16.8473 48.2995 16.6918 48.2307L16.508 48.1473L16.4996 47.4624C16.4883 46.5165 16.5731 45.23 16.655 45.1249C16.6692 45.1067 16.8049 45.4909 16.9575 45.9729C17.113 46.4549 17.3589 47.2123 17.5059 47.6544C17.7604 48.4264 17.7773 48.4626 17.8508 48.4626C17.9837 48.4626 18.0685 48.3394 18.1363 48.0531C18.2014 47.7668 18.8346 45.904 19.0607 45.3278L19.2021 44.9654L19.219 45.1647C19.2275 45.2734 19.2558 45.9004 19.2784 46.56C19.301 47.2159 19.3236 47.8284 19.3293 47.919L19.3349 48.0821L19.1088 48.227C18.9872 48.3068 18.8798 48.3901 18.877 48.4082C18.8713 48.43 18.8855 48.4771 18.9053 48.5133C18.9392 48.5713 18.9618 48.5749 19.1795 48.5351C19.3378 48.5061 19.5781 48.5025 19.8918 48.517C20.1491 48.5315 20.3724 48.5351 20.3865 48.5242C20.4233 48.4952 20.3979 48.2959 20.3583 48.2886C20.2367 48.2742 20.1095 48.1799 20.0728 48.0821C19.9851 47.8465 19.8975 46.6143 19.8692 45.2553L19.8494 44.3856L19.9625 44.3022C20.0275 44.2587 20.1039 44.2225 20.135 44.2225C20.1943 44.2225 20.282 44.0993 20.282 44.0195C20.282 43.9072 19.8353 43.8456 19.3491 43.8927Z" fill="#404040"/>
<path d="M28.9766 43.9211C28.9512 43.9501 28.9314 44.0009 28.9314 44.0335C28.9314 44.1023 28.1936 46.458 27.9646 47.1248C27.6762 47.9619 27.5462 48.2048 27.3625 48.2446C27.2579 48.2664 27.2494 48.2772 27.2409 48.3968L27.2324 48.5237H27.8713L28.5074 48.52V48.4041C28.5074 48.3207 28.4932 48.2845 28.4649 48.2845C28.3773 48.2845 28.2614 48.1758 28.2247 48.067C28.1766 47.9148 28.2049 47.5959 28.2982 47.2734C28.4169 46.8602 28.4028 46.8675 29.1264 46.8784L29.7371 46.8892L29.8332 47.2154C29.9576 47.6467 30.0169 48.0091 29.9773 48.1033C29.9406 48.1903 29.8049 48.2845 29.7144 48.2845C29.6579 48.2845 29.6409 48.3062 29.6325 48.3932C29.624 48.4621 29.6325 48.5056 29.6607 48.52C29.7257 48.549 31.1194 48.5382 31.159 48.5056C31.1844 48.4874 31.1901 48.4439 31.1788 48.3823C31.1646 48.3099 31.1335 48.2772 31.0544 48.2482C30.8395 48.1758 30.7604 47.9801 30.3533 46.5812C30.1385 45.8419 30.0141 45.3744 29.8049 44.5227C29.7568 44.3198 29.6777 44.0878 29.6353 44.0081L29.5533 43.8631H29.2876C29.0812 43.8631 29.0105 43.8776 28.9766 43.9211ZM29.2961 45.2185C29.4148 45.6027 29.5816 46.3275 29.5816 46.4471C29.5816 46.516 29.5646 46.516 29.101 46.5015C28.8381 46.4942 28.6119 46.4761 28.6035 46.4616C28.578 46.4326 28.7561 45.8056 28.9625 45.1714C29.1349 44.6496 29.1236 44.6459 29.2961 45.2185Z" fill="#404040"/>
<path d="M45.3477 44.033C45.3081 44.1309 45.1866 44.4933 45.0792 44.8412C44.7597 45.8632 44.2 47.5592 44.118 47.7549C44.0021 48.034 43.8297 48.2478 43.7251 48.2478C43.6346 48.2478 43.6035 48.2985 43.6035 48.4435V48.5232L44.2622 48.5196H44.918L44.9265 48.4181C44.935 48.3166 44.9293 48.3094 44.7823 48.2659C44.7371 48.255 44.6693 48.2043 44.6325 48.1572C44.5109 48.0014 44.5534 47.6208 44.7569 47.0881L44.8332 46.8888L45.0594 46.8598C45.3732 46.8199 45.9753 46.8489 46.0686 46.9069C46.1251 46.9395 46.1647 47.012 46.2043 47.1533C46.3004 47.4759 46.3739 47.8564 46.3739 48.0122C46.3739 48.1608 46.3739 48.1608 46.2156 48.226C46.0968 48.2732 46.0544 48.313 46.0318 48.3819C46.012 48.4544 46.0149 48.4833 46.0403 48.5087C46.0912 48.5486 47.4792 48.545 47.5301 48.5051C47.581 48.4616 47.547 48.2877 47.482 48.2623C47.2983 48.1898 47.2446 48.1246 47.123 47.7984C46.9534 47.3454 46.3739 45.3232 46.0516 44.0511L46.0007 43.8627H45.7124H45.4212L45.3477 44.033ZM45.6615 45.1202C45.7746 45.508 45.9781 46.3524 45.9781 46.4394C45.9781 46.5046 45.9498 46.5082 45.4834 46.5082C45.212 46.5082 44.9887 46.4937 44.9887 46.4756C44.9887 46.3814 45.3647 45.0695 45.458 44.8303C45.5173 44.689 45.5484 44.7325 45.6615 45.1202Z" fill="#404040"/>
<path d="M3.34207 43.9472C3.25444 44.0269 3.30532 44.1791 3.44667 44.2589C3.50886 44.2951 3.59084 44.364 3.62476 44.4111C3.76611 44.6104 4.00922 45.3642 4.53785 47.2523C4.70463 47.8503 4.86294 48.4011 4.88556 48.4772L4.93079 48.6113H5.15694H5.38026L5.63468 47.8394C5.77603 47.419 5.92868 46.9479 5.97674 46.7921C6.152 46.2231 6.58169 44.9583 6.68911 44.6937C6.82198 44.3676 6.93505 44.2154 7.0453 44.219C7.14142 44.219 7.16686 44.1755 7.16686 44.0124V43.8928L7.06226 43.9218C7.0029 43.9399 6.72304 43.9544 6.44035 43.9544C6.13222 43.9544 5.91454 43.9689 5.89758 43.9907C5.83822 44.0632 5.93151 44.2009 6.0785 44.2589L6.21985 44.3168L6.21137 44.4763C6.20289 44.672 6.02479 45.3859 5.82126 46.0383C5.51313 47.0276 5.36895 47.4661 5.33786 47.477C5.30111 47.4951 5.13998 46.9769 4.87142 45.9875C4.60004 44.98 4.47283 44.4038 4.50958 44.3567C4.52654 44.335 4.60004 44.2915 4.67354 44.2589C4.82902 44.1936 4.90252 44.0632 4.83467 43.9726C4.80075 43.9327 4.74138 43.9254 4.57177 43.9363C4.22406 43.9617 3.80568 43.9581 3.59084 43.9254C3.44101 43.9037 3.37882 43.9109 3.34207 43.9472Z" fill="#404040"/>
<path d="M7.72399 43.9638C7.66179 43.9783 7.66179 43.9856 7.71551 44.1161C7.74943 44.1994 7.7777 44.2248 7.84272 44.2248C7.97275 44.2248 8.06321 44.3552 8.10562 44.6053C8.1565 44.9206 8.15367 47.7329 8.10279 47.9503C8.05473 48.1569 7.98971 48.233 7.83424 48.262C7.76356 48.2765 7.68441 48.3199 7.65614 48.3598C7.60808 48.4287 7.60808 48.4323 7.66462 48.5084C7.72116 48.5773 7.73529 48.5809 7.96427 48.5374C8.11127 48.512 8.41658 48.4975 8.73884 48.5084L9.2703 48.5193L9.27878 48.4105C9.28726 48.3018 9.28161 48.2982 9.11765 48.2511C8.89432 48.1895 8.86888 48.1351 8.83213 47.6423C8.77276 46.8341 8.80951 44.5582 8.88584 44.3734C8.91694 44.3045 9.02718 44.2357 9.14309 44.2175C9.21093 44.2067 9.30987 44.0291 9.27312 43.982C9.25616 43.9566 7.80597 43.9421 7.72399 43.9638Z" fill="#404040"/>
<path d="M9.95545 43.9644C9.9187 43.9752 9.91021 44.0006 9.92152 44.055C9.93 44.0985 9.93848 44.1456 9.93848 44.1601C9.93848 44.1782 9.97241 44.1891 10.0176 44.1891C10.1279 44.1927 10.2834 44.3014 10.3258 44.4065C10.354 44.4754 10.3625 44.845 10.3625 45.9105C10.3625 47.4108 10.3342 48.132 10.2721 48.1827C10.2523 48.1972 10.1873 48.2226 10.1251 48.2335C9.99785 48.2625 9.87064 48.3893 9.89325 48.4654C9.90739 48.5125 10.0318 48.5198 10.73 48.5234C11.4791 48.527 11.5498 48.5234 11.5498 48.469C11.5498 48.3531 11.4791 48.2842 11.3095 48.2299C11.2191 48.1972 11.1399 48.1683 11.1343 48.161C11.0523 48.0595 11.0212 45.2944 11.0919 44.6928C11.1145 44.5225 11.1399 44.363 11.154 44.3376C11.1654 44.3086 11.2389 44.2688 11.3124 44.2434C11.4113 44.2144 11.4622 44.1709 11.4933 44.1057C11.5159 44.055 11.5244 44.0006 11.5131 43.9861C11.4933 43.9607 10.0544 43.9426 9.95545 43.9644Z" fill="#404040"/>
<path d="M21.0655 43.9642C21.0033 43.9787 21.0033 44.0911 21.0684 44.1599C21.0938 44.1889 21.1673 44.2252 21.2295 44.236C21.4613 44.2832 21.4811 44.41 21.4783 45.8197C21.4754 46.936 21.4359 47.9543 21.385 48.1174C21.368 48.179 21.3228 48.208 21.2041 48.2442C21.0599 48.2841 20.9609 48.3566 20.9609 48.4254C20.9609 48.4399 20.9779 48.4798 20.9977 48.516C21.0344 48.5776 21.0542 48.5813 21.2804 48.5378C21.4302 48.5124 21.7355 48.4979 22.0691 48.5052C22.561 48.5197 22.6147 48.5124 22.6232 48.458C22.6373 48.3674 22.527 48.2479 22.4281 48.2479C22.3009 48.2479 22.2443 48.1971 22.1906 48.0232C22.1454 47.8818 22.1398 47.7332 22.1454 46.5264C22.1482 45.171 22.1793 44.5006 22.2415 44.3339C22.2726 44.2578 22.2952 44.2433 22.397 44.2505C22.5101 44.2578 22.5214 44.2469 22.5638 44.1346C22.5892 44.0657 22.6034 43.9969 22.5921 43.986C22.5751 43.9642 21.1503 43.9425 21.0655 43.9642Z" fill="#404040"/>
<path d="M23.2811 43.9882C23.2416 44.0389 23.3122 44.1911 23.3857 44.2092C23.4225 44.2201 23.4847 44.2346 23.5243 44.2455C23.5723 44.26 23.6119 44.3107 23.643 44.4013C23.6854 44.5209 23.691 44.6876 23.6882 45.8582C23.6826 47.3259 23.6486 47.9638 23.5695 48.1015C23.544 48.1486 23.4536 48.2211 23.3716 48.2646C23.2444 48.3298 23.2246 48.3552 23.2246 48.4421V48.5472L23.7702 48.5219C24.1377 48.5037 24.3695 48.511 24.4882 48.5364C24.8105 48.6125 24.8783 48.4602 24.6098 48.2682C24.3752 48.1015 24.3441 48 24.3328 47.3187C24.3214 46.7714 24.3214 46.7678 24.3921 46.6772C24.6296 46.3728 24.8586 46.5757 25.3137 47.4999C25.6162 48.116 25.8282 48.4313 26.0034 48.5219C26.1618 48.6052 26.6282 48.6378 26.8006 48.5762C26.9844 48.511 26.9702 48.4313 26.7526 48.2935C26.5151 48.145 26.3936 47.9855 26.0939 47.4383C25.6275 46.5939 25.5398 46.4235 25.5483 46.3656C25.554 46.3366 25.619 46.2605 25.6953 46.1952C26.0402 45.9053 26.2239 45.532 26.2239 45.1261C26.2239 44.6151 25.9893 44.2564 25.5144 44.0425C25.3363 43.9592 25.3024 43.9556 24.3186 43.9556C23.7617 43.9556 23.2953 43.9701 23.2811 43.9882ZM25.1186 44.4484C25.2882 44.5427 25.472 44.7927 25.5144 44.9848C25.5794 45.2856 25.5285 45.6226 25.3759 45.9089C25.2204 46.1952 25.0338 46.2786 24.607 46.2387L24.3271 46.2133V45.3327C24.3271 44.4122 24.3271 44.4049 24.4543 44.3615C24.5787 44.3143 24.9745 44.3687 25.1186 44.4484Z" fill="#404040"/>
<path d="M35.7828 43.9614C35.7631 43.9723 35.7461 44.0085 35.7461 44.0448C35.7461 44.1281 35.7913 44.1716 35.9411 44.2296C36.1503 44.3093 36.1532 44.3347 36.156 45.7662C36.1616 47.0709 36.1758 47.2629 36.3115 47.7051C36.515 48.3683 36.9532 48.6799 37.6825 48.6799C38.5871 48.6799 39.0931 48.1798 39.2401 47.1325C39.2825 46.8353 39.2854 46.6396 39.2712 45.7843C39.2628 45.219 39.2656 44.708 39.2825 44.6065C39.3108 44.3963 39.3956 44.284 39.5596 44.226C39.6727 44.1897 39.732 44.0665 39.6755 43.994C39.6444 43.9542 38.5023 43.9397 38.4571 43.9759C38.3921 44.0267 38.4514 44.139 38.5871 44.226C38.7794 44.3492 38.8444 44.5232 38.8868 45.0233C38.9179 45.411 38.9037 46.2736 38.8557 46.9549C38.8133 47.5057 38.6663 47.8247 38.3525 48.0276C38.0246 48.2414 37.4931 48.1653 37.2189 47.8645C36.9588 47.5782 36.8882 47.2738 36.8458 46.2736C36.8118 45.5089 36.8429 44.592 36.9108 44.4326C36.9532 44.3275 37.0352 44.2513 37.1595 44.2042C37.2359 44.1752 37.2613 44.1426 37.267 44.0701C37.2726 44.0158 37.267 43.9723 37.2528 43.9687C37.1708 43.9578 35.8111 43.9506 35.7828 43.9614Z" fill="#404040"/>
<path d="M40.408 43.9742C40.3911 43.9851 40.3854 44.0286 40.3939 44.0684C40.4108 44.1409 40.473 44.1916 40.6172 44.2605C40.767 44.3294 40.7896 44.4671 40.801 45.4745C40.8123 46.3624 40.767 47.8809 40.7246 48.0875C40.7077 48.1781 40.6822 48.1962 40.5522 48.2361C40.3967 48.2796 40.3176 48.3629 40.3317 48.4644C40.3402 48.5115 40.5126 48.5187 41.7169 48.5296L43.0936 48.5369L43.136 48.439C43.201 48.2759 43.3225 47.6635 43.3225 47.4968C43.3225 47.3772 43.3112 47.3409 43.266 47.3228C43.1925 47.2938 43.136 47.3518 43.0625 47.5366C42.9466 47.8338 42.7854 47.986 42.5084 48.0621C42.3133 48.1129 41.7536 48.1092 41.6264 48.0549C41.4511 47.9788 41.4427 47.8954 41.4511 46.5074C41.4596 45.1266 41.4879 44.5685 41.5614 44.3728C41.6038 44.2641 41.6292 44.2388 41.7254 44.2243C41.8073 44.2098 41.8469 44.1844 41.8723 44.1155C41.895 44.0539 41.8978 44.0141 41.878 43.9887C41.8469 43.9488 40.4589 43.9343 40.408 43.9742Z" fill="#404040"/>
<path d="M13.383 45.7566C13.0381 46.0502 13.2049 46.688 13.6261 46.688C13.7448 46.688 13.9229 46.5793 13.971 46.4742C14.0812 46.2422 14.0134 45.8436 13.8409 45.7312C13.7137 45.6443 13.4989 45.6551 13.383 45.7566Z" fill="#404040"/>
</svg>
