<svg width="30" height="22" viewBox="0 0 30 22" fill="none" xmlns="http://www.w3.org/2000/svg">
<path d="M29.5 10.5168V10.5169V10.5173L29.5 10.5197L29.5 10.5297L29.4999 10.57C29.4997 10.6057 29.4994 10.6586 29.4988 10.7269C29.4976 10.8636 29.4952 11.0619 29.4903 11.3074C29.4806 11.7986 29.4611 12.4775 29.4223 13.2285C29.3438 14.7455 29.1882 16.505 28.8897 17.6194L28.8897 17.6196C28.59 18.7408 27.7096 19.6222 26.5909 19.9221L26.5907 19.9221C26.0581 20.0652 25.0783 20.1809 23.866 20.2695C22.6678 20.3571 21.2839 20.4158 19.9683 20.455C18.6536 20.4941 17.4111 20.5137 16.497 20.5235C16.0401 20.5284 15.6655 20.5308 15.4053 20.532C15.2752 20.5327 15.1737 20.533 15.1048 20.5331L15.0264 20.5332L15.0065 20.5333L15.0015 20.5333H15.0003H15L14.9999 21.0333L14.9999 20.5333H14.9996H14.9984L14.9934 20.5333L14.9735 20.5332L14.8951 20.5331C14.8262 20.533 14.7247 20.5327 14.5946 20.532C14.3344 20.5308 13.9598 20.5284 13.5029 20.5235C12.5888 20.5137 11.3464 20.4941 10.0316 20.455C8.71606 20.4158 7.33212 20.3571 6.13394 20.2695C4.92165 20.1809 3.94184 20.0652 3.40927 19.9221L3.409 19.9221C2.29037 19.6222 1.40997 18.7408 1.11031 17.6196L1.11024 17.6194C0.811826 16.505 0.656238 14.7455 0.57774 13.2285C0.538879 12.4775 0.519428 11.7986 0.509703 11.3074C0.504843 11.0619 0.502416 10.8636 0.501206 10.7269C0.5006 10.6586 0.500299 10.6057 0.500149 10.57L0.500018 10.5297L0.500002 10.5197L0.5 10.5173L0.5 10.5167V10.5166V10.5166V10.5165L0.5 10.516L0.500002 10.5136L0.500018 10.5036L0.500149 10.4633C0.500299 10.4276 0.5006 10.3747 0.501206 10.3064C0.502416 10.1697 0.504843 9.97139 0.509703 9.7259C0.519428 9.2347 0.538879 8.55579 0.57774 7.80479C0.656238 6.28783 0.811826 4.52825 1.11024 3.41394L1.11031 3.4137C1.40997 2.29252 2.29037 1.41108 3.40902 1.11117L3.40926 1.11111C3.94183 0.968045 4.92165 0.852331 6.13393 0.763703C7.33212 0.676106 8.71605 0.617473 10.0316 0.578307C11.3464 0.539166 12.5888 0.519581 13.5029 0.509787C13.9598 0.504891 14.3344 0.502444 14.5946 0.501221C14.7247 0.50061 14.8262 0.500305 14.8951 0.500152L14.9735 0.500019L14.9934 0.500002L14.9984 0.5L14.9996 0.5L14.9999 0.5L14.9999 0L15 0.5L15.0003 0.5L15.0015 0.5L15.0065 0.500002L15.0264 0.500019L15.1048 0.500152C15.1737 0.500305 15.2752 0.50061 15.4053 0.501221C15.6655 0.502444 16.0401 0.504891 16.497 0.509787C17.4111 0.519581 18.6536 0.539166 19.9683 0.578307C21.2839 0.617473 22.6678 0.676106 23.866 0.763703C25.0783 0.852331 26.0581 0.968045 26.5907 1.11111L26.5909 1.11117C27.7096 1.41109 28.59 2.29254 28.8897 3.41368C29.1869 4.52832 29.3425 6.28803 29.4213 7.8049C29.4603 8.55593 29.48 9.23488 29.4899 9.7261C29.4949 9.9716 29.4974 10.1699 29.4987 10.3066C29.4993 10.3749 29.4997 10.4278 29.4998 10.4635L29.5 10.5038L29.5 10.5138L29.5 10.5162V10.5166V10.5167V10.5168Z" stroke="#343434"/>
<path d="M11.9961 15.0228L19.79 10.5165L11.9961 6.01001V15.0228Z" fill="#343434"/>
</svg>
