<svg width="26" height="26" viewBox="0 0 26 26" fill="none" xmlns="http://www.w3.org/2000/svg">
<path d="M1.07794 7.6248C1.13701 6.33385 1.33914 5.50127 1.6125 4.79455L1.61618 4.78478C1.88706 4.06562 2.31142 3.41413 2.85971 2.87565L2.8674 2.86809L2.87495 2.8604C3.41388 2.31141 4.0656 1.88747 4.78414 1.6173L4.79653 1.61257C5.50165 1.33835 6.3326 1.13696 7.62462 1.0779M1.07794 7.6248C1.01583 9.0041 1 9.43167 1 13.0079C1 16.5849 1.01496 17.0115 1.0779 18.3911M1.07794 7.6248V7.97272M7.62462 1.0779C9.00425 1.01496 9.43167 1 13.0078 1C16.5841 1 17.0113 1.01581 18.3905 1.07791M7.62462 1.0779H7.97344M1.0779 18.3911C1.13696 19.6832 1.33835 20.5141 1.61257 21.2192L1.6173 21.2317M1.0779 18.3911L1.09906 18.5025M1.0779 18.3911V18.0424M1.07794 7.97272C1.08276 7.86218 1.08797 7.74696 1.09354 7.62442C1.15827 6.21196 1.39839 5.38669 1.62726 4.80134C1.92347 4.0369 2.29869 3.46007 2.87193 2.88445C3.41681 2.32551 4.07919 1.89478 4.81108 1.62347C5.39384 1.39744 6.21692 1.15805 7.62405 1.09355C7.74698 1.08797 7.86256 1.08275 7.97344 1.0779M1.07794 7.97272C1.02682 9.1416 1.01583 9.7864 1.01583 13.0079C1.01583 16.2284 1.02682 16.8741 1.0779 18.0424M1.07794 7.97272L1.0779 18.0424M1.6173 21.2317C1.88747 21.9502 2.31141 22.6019 2.8604 23.1409L2.86808 23.1484L2.87562 23.156C3.41413 23.7043 4.06564 24.1288 4.78481 24.3996L4.79554 24.4036C5.50131 24.6774 6.33266 24.8788 7.62462 24.9379M1.6173 21.2317L1.60111 21.1463M1.60111 21.1463L1.09906 18.5025M1.60111 21.1463C1.38788 20.5831 1.16832 19.797 1.09906 18.5025M1.60111 21.1463C1.60859 21.1662 1.61605 21.1856 1.62352 21.2048C1.89392 21.9338 2.32237 22.5939 2.87809 23.1376C3.42161 23.6932 4.08143 24.1216 4.81017 24.392C5.39499 24.6198 6.21904 24.8579 7.62442 24.9223C9.04268 24.9868 9.48085 25 13.0078 25C16.535 25 16.9735 24.9868 18.3918 24.9223C19.7988 24.8577 20.6219 24.6184 21.2047 24.3924C21.9338 24.1221 22.5941 23.6935 23.1377 23.1376C23.6933 22.594 24.1216 21.9343 24.392 21.2056C24.6198 20.6207 24.8579 19.7968 24.9222 18.3914C24.9867 16.9731 25 16.534 25 13.0079C25 9.48174 24.9867 9.04231 24.9222 7.62405C24.8574 6.2096 24.6159 5.38527 24.3888 4.802C24.0919 4.03564 23.7155 3.45604 23.1368 2.87739C22.5593 2.30104 21.9813 1.92436 21.2143 1.62721C20.629 1.39836 19.8041 1.15829 18.3918 1.09355C18.2689 1.08797 18.1534 1.08276 18.0427 1.07791M1.09906 18.5025C1.0971 18.466 1.09527 18.4292 1.09355 18.3918C1.08797 18.2689 1.08275 18.1533 1.0779 18.0424M18.0427 1.07791H18.3905M18.0427 1.07791L7.97344 1.0779M18.0427 1.07791C16.8742 1.02683 16.2286 1.01583 13.0078 1.01583C9.78738 1.01583 9.14168 1.02682 7.97344 1.0779M18.3905 1.07791C19.6817 1.13698 20.5144 1.33908 21.2213 1.61247L21.231 1.61618C21.9501 1.88706 22.6016 2.31142 23.1401 2.85971L23.1476 2.86732L23.1553 2.8748C23.7036 3.41332 24.1279 4.065 24.3986 4.78436L24.4032 4.79653C24.6774 5.50165 24.8789 6.3326 24.9379 7.62462M24.9379 18.3911C24.8789 19.6831 24.6774 20.5145 24.4037 21.2202L24.3996 21.231C24.1287 21.9502 23.7044 22.6016 23.156 23.1401L23.1483 23.1477L23.1409 23.1554C22.6019 23.7043 21.9502 24.1283 21.2316 24.3984L21.2192 24.4032C20.5142 24.6775 19.6831 24.8788 18.3912 24.9379M10.8722 18.1639C11.5493 18.4443 12.275 18.5887 13.0078 18.5887C14.488 18.5887 15.9076 18.0007 16.9542 16.9542C18.0007 15.9075 18.5887 14.488 18.5887 13.0079C18.5887 11.5278 18.0007 10.1083 16.9542 9.06165C15.9076 8.01505 14.488 7.42706 13.0078 7.42706C12.275 7.42706 11.5493 7.57142 10.8722 7.85189C10.1951 8.13235 9.57988 8.54343 9.06166 9.06165C8.54344 9.57989 8.13236 10.1951 7.85189 10.8722C7.57143 11.5492 7.42708 12.2751 7.42708 13.0079C7.42708 13.7408 7.57143 14.4665 7.85189 15.1436C8.13236 15.8207 8.54344 16.4359 9.06166 16.9542C9.57988 17.4723 10.1951 17.8835 10.8722 18.1639ZM9.04923 9.04922C10.0992 7.99931 11.5231 7.40948 13.0078 7.40948C14.4927 7.40948 15.9166 7.99931 16.9666 9.04922C18.0165 10.0991 18.6063 11.5231 18.6063 13.0079C18.6063 14.4927 18.0165 15.9166 16.9666 16.9665C15.9166 18.0165 14.4927 18.6062 13.0078 18.6062C11.5231 18.6062 10.0992 18.0165 9.04923 16.9665C7.99932 15.9166 7.40949 14.4927 7.40949 13.0079C7.40949 11.5231 7.99932 10.0991 9.04923 9.04922ZM21.7587 6.10604C21.7587 6.53102 21.5899 6.93859 21.2895 7.23909C20.989 7.5396 20.5814 7.70842 20.1564 7.70842C19.7314 7.70842 19.3239 7.5396 19.0234 7.23909C18.7229 6.93859 18.554 6.53102 18.554 6.10604C18.554 5.68107 18.7229 5.2735 19.0234 4.973C19.3239 4.6725 19.7314 4.50368 20.1564 4.50368C20.5814 4.50368 20.989 4.6725 21.2895 4.973C21.5899 5.2735 21.7587 5.68107 21.7587 6.10604Z" stroke="#404040" stroke-width="1.3" stroke-linejoin="round"/>
</svg>
