<svg width="25" height="25" viewBox="0 0 25 25" fill="none" xmlns="http://www.w3.org/2000/svg">
<path d="M12.5103 0C5.60131 0 0 5.59211 0 12.4897C0 17.7837 3.29489 22.3067 7.94891 24.1262C7.83565 23.1394 7.74298 21.618 7.9901 20.5387C8.21662 19.5621 9.4522 14.3298 9.4522 14.3298C9.4522 14.3298 9.08153 13.5794 9.08153 12.4794C9.08153 10.7422 10.0906 9.44696 11.3468 9.44696C12.4176 9.44696 12.9324 10.2488 12.9324 11.2048C12.9324 12.2738 12.2529 13.8775 11.8925 15.368C11.5939 16.6118 12.5206 17.6295 13.7458 17.6295C15.9699 17.6295 17.6791 15.2858 17.6791 11.9141C17.6791 8.9227 15.5271 6.83594 12.4485 6.83594C8.88589 6.83594 6.7957 9.49836 6.7957 12.2533C6.7957 13.3224 7.20756 14.4737 7.72239 15.1007C7.82535 15.2241 7.83565 15.3372 7.80476 15.4605C7.71209 15.8512 7.49586 16.7044 7.45468 16.8791C7.4032 17.1053 7.26934 17.1567 7.03252 17.0436C5.46745 16.3137 4.48928 14.0419 4.48928 12.2019C4.48928 8.2648 7.35171 4.64638 12.7574 4.64638C17.0922 4.64638 20.4695 7.73026 20.4695 11.8627C20.4695 16.1698 17.7512 19.634 13.9827 19.634C12.7162 19.634 11.5218 18.9762 11.1202 18.1949C11.1202 18.1949 10.4922 20.5798 10.3377 21.1657C10.0597 22.2553 9.29775 23.6123 8.78293 24.4449C9.95673 24.8047 11.1923 25 12.4897 25C19.3986 25 24.9999 19.4079 24.9999 12.5103C25.0205 5.5921 19.4192 0 12.5103 0Z" fill="#757575"/>
</svg>
