<svg width="27" height="25" viewBox="0 0 27 25" fill="none" xmlns="http://www.w3.org/2000/svg">
<path fill-rule="evenodd" clip-rule="evenodd" d="M26.434 12.5C26.434 19.4036 20.6429 25 13.4992 25C6.35555 25 0.564453 19.4036 0.564453 12.5C0.564453 5.59644 6.35555 0 13.4992 0C20.6429 0 26.434 5.59644 26.434 12.5ZM9.22619 11.355C7.93046 11.9017 6.59911 12.4634 5.38172 13.1114L5.38163 13.1115C4.74595 13.5613 5.5909 13.8794 6.38352 14.1779C6.50953 14.2253 6.63422 14.2722 6.75143 14.3191C6.84896 14.3481 6.94815 14.3786 7.04865 14.4096C7.93019 14.681 8.91318 14.9837 9.769 14.5284C11.1749 13.7479 12.5016 12.8456 13.8274 11.944C14.2617 11.6486 14.696 11.3533 15.1328 11.0623C15.1533 11.0497 15.1764 11.0352 15.2016 11.0194C15.5738 10.7863 16.4108 10.2619 16.1012 10.9844C15.3691 11.7582 14.5849 12.4431 13.7964 13.1318C13.2651 13.5959 12.7317 14.0617 12.2111 14.5575C11.7577 14.9136 11.2868 15.6296 11.7946 16.1282C12.964 16.9194 14.1518 17.6914 15.3389 18.4629C15.7252 18.714 16.1113 18.965 16.4968 19.2166C17.1501 19.7207 18.1711 19.3129 18.3148 18.5252C18.3786 18.1629 18.4428 17.8006 18.5069 17.4383C18.8613 15.4358 19.2158 13.4327 19.529 11.4237C19.5716 11.1086 19.6198 10.7934 19.6681 10.4782C19.7851 9.71405 19.9023 8.949 19.9388 8.18077C19.8445 7.41413 18.8827 7.5827 18.3473 7.75508C15.5959 8.76685 12.8719 9.85362 10.1587 10.9596C9.8514 11.0912 9.53984 11.2226 9.22619 11.355Z" fill="#757575"/>
</svg>
