<svg width="26" height="25" viewBox="0 0 26 25" fill="none" xmlns="http://www.w3.org/2000/svg">
<path fill-rule="evenodd" clip-rule="evenodd" d="M13.0656 0C20.2093 0 26.0004 5.59644 26.0004 12.5C26.0004 19.4036 20.2093 25 13.0656 25C5.92196 25 0.130859 19.4036 0.130859 12.5C0.130859 5.59644 5.92196 0 13.0656 0ZM16.5117 10.9158C16.4488 10.4219 16.2917 10.0341 16.0128 9.69058C15.6505 9.24825 15.1876 8.98338 14.5022 8.82625C14.0556 8.72153 13.8751 8.73355 13.7136 8.87615C13.5631 9.00975 13.5337 9.27758 13.6487 9.45102C13.7296 9.57691 13.8229 9.62201 14.0823 9.67123C14.4278 9.73266 14.6666 9.8124 14.8839 9.93242C15.3449 10.1897 15.5596 10.5922 15.5826 11.244C15.5933 11.55 15.6207 11.6441 15.7313 11.7526C15.9363 11.951 16.3011 11.9124 16.4558 11.675C16.5126 11.5855 16.5213 11.5466 16.5273 11.3388C16.5312 11.2101 16.5255 11.0187 16.5117 10.9158ZM16.5179 7.8855C17.614 8.74207 18.2264 9.95952 18.3175 11.4727C18.3558 12.0687 18.3049 12.2629 18.0873 12.3734C17.891 12.4759 17.6686 12.4422 17.5159 12.2879C17.4148 12.1876 17.376 12.0504 17.3775 11.8074C17.3819 11.1357 17.2218 10.3855 16.9614 9.86497C16.66 9.25912 16.1942 8.74355 15.6082 8.36661C15.0949 8.03554 14.4155 7.81192 13.7569 7.75623C13.3296 7.72011 13.1771 7.65018 13.0951 7.45225C13.0443 7.33385 13.0577 7.12916 13.1172 7.03748C13.1736 6.95294 13.2999 6.85945 13.3893 6.83474C13.4839 6.80805 14.0358 6.85471 14.3356 6.91227C15.1538 7.07323 15.9003 7.40419 16.5179 7.8855ZM20.3157 17.3002C20.2851 17.2137 20.2136 17.0803 20.1626 17.0037C19.8409 16.5343 18.1127 15.2272 17.2498 14.7997C16.7571 14.5552 16.392 14.4736 16.1214 14.5502C15.8304 14.6293 15.6772 14.7602 15.1896 15.3458C14.9931 15.5805 14.7914 15.8004 14.7378 15.835C14.605 15.924 14.3447 15.9956 14.1609 15.9956C13.7345 15.9931 12.961 15.7263 12.3662 15.3754C11.9041 15.1037 11.3119 14.6169 10.8575 14.1351C10.3214 13.5693 9.95636 13.0702 9.66786 12.5069C9.29516 11.783 9.20071 11.3407 9.35641 11.017C9.39471 10.9355 9.44578 10.849 9.46872 10.8218C9.49171 10.7971 9.73169 10.6069 9.99716 10.3993C10.518 9.99908 10.6022 9.90766 10.6992 9.63341C10.8217 9.28501 10.7886 8.92922 10.5997 8.57098C10.4541 8.29918 10.0738 7.70621 9.79806 7.32325C9.43301 6.81923 8.52419 5.74198 8.34291 5.59616C8.01616 5.33923 7.59753 5.29473 7.13543 5.46772C6.64788 5.65056 5.73393 6.36213 5.34334 6.85876C4.99105 7.30843 4.85579 7.62714 4.83535 8.04717C4.81749 8.39306 4.84811 8.53637 5.03703 8.97865C6.51512 12.4476 8.72074 15.2173 11.751 17.4163C13.3337 18.5652 14.9752 19.4399 16.6779 20.0378C17.671 20.3862 18.1024 20.4034 18.6104 20.1169C18.8249 19.9933 19.3559 19.467 19.652 19.0841C20.1421 18.4466 20.3234 18.1526 20.3744 17.9179C20.4102 17.7573 20.3821 17.4781 20.3157 17.3002ZM19.663 9.47945C19.974 10.2622 20.1231 10.9643 20.1558 11.8203C20.161 11.9894 20.1585 12.2992 20.1472 12.509C20.1236 12.9113 20.101 12.9913 19.9812 13.0977C19.7885 13.2724 19.4131 13.2307 19.2707 13.0202C19.1963 12.9073 19.1859 12.8246 19.2003 12.3546C19.2416 10.9642 18.9506 9.87559 18.2496 8.78706C17.412 7.48109 16.1591 6.60132 14.5298 6.17092C14.1144 6.06137 13.7642 5.9946 13.2197 5.92375C12.865 5.87888 12.7873 5.85991 12.6997 5.80784C12.4352 5.64414 12.4317 5.22962 12.6954 5.06343C12.8314 4.9757 12.9317 4.97178 13.3752 5.02666C14.6756 5.1837 15.8359 5.55712 16.7894 6.12138C17.4728 6.52637 17.9037 6.8902 18.4585 7.5274C19.0453 8.207 19.356 8.70945 19.663 9.47945Z" fill="#757575"/>
</svg>
