<svg width="26" height="25" viewBox="0 0 26 25" fill="none" xmlns="http://www.w3.org/2000/svg">
<path fill-rule="evenodd" clip-rule="evenodd" d="M0 12.5C0 19.4036 5.7911 25 12.9348 25C20.0785 25 25.8696 19.4036 25.8696 12.5C25.8696 5.59644 20.0785 0 12.9348 0C5.7911 0 0 5.59644 0 12.5ZM21.0525 12.0216C21.0508 16.1189 17.6018 19.4528 13.3611 19.4544H13.358C12.0707 19.454 10.8058 19.1419 9.68241 18.5497L5.60507 19.5833L6.69624 15.7317C6.02315 14.6044 5.66898 13.3258 5.66956 12.0158C5.67125 7.91755 9.12162 4.58333 13.3611 4.58333C15.4186 4.58419 17.3498 5.35826 18.8019 6.76324C20.254 8.16814 21.0533 10.0356 21.0525 12.0216Z" fill="#757575"/>
<path fill-rule="evenodd" clip-rule="evenodd" d="M7.45235 17.8176L9.8719 17.2042L10.1053 17.3381C11.0869 17.901 12.212 18.1988 13.3591 18.1992H13.3617C16.8852 18.1992 19.753 15.4278 19.7544 12.0213C19.7551 10.3705 19.0908 8.81837 17.8838 7.65061C16.6768 6.48285 15.0717 5.83944 13.3642 5.83887C9.83798 5.83887 6.97015 8.61005 6.96875 12.0163C6.96826 13.1836 7.30624 14.3205 7.94617 15.3041L8.09817 15.5378L7.45235 17.8176ZM16.9734 13.622C17.1074 13.6846 17.1979 13.7269 17.2366 13.7892C17.2846 13.8667 17.2846 14.2385 17.1246 14.6724C16.9643 15.1062 16.1966 15.5022 15.8273 15.5555C15.4962 15.6033 15.0772 15.6233 14.6169 15.4819C14.3377 15.3963 13.9798 15.282 13.5213 15.0907C11.7196 14.3389 10.502 12.6513 10.2719 12.3324C10.2558 12.3101 10.2445 12.2944 10.2382 12.2863L10.2367 12.2843C10.135 12.1532 9.45349 11.2745 9.45349 10.3651C9.45349 9.5096 9.88833 9.06119 10.0885 8.85479C10.1022 8.84065 10.1148 8.82765 10.1261 8.81573C10.3023 8.62979 10.5105 8.5833 10.6386 8.5833C10.7667 8.5833 10.895 8.58445 11.0069 8.58988C11.0208 8.59055 11.0351 8.59047 11.05 8.59039C11.162 8.58975 11.3016 8.58896 11.4393 8.90869C11.4923 9.03175 11.5699 9.21417 11.6516 9.40658C11.817 9.79564 11.9997 10.2255 12.0319 10.2877C12.0799 10.3807 12.1119 10.4891 12.0479 10.6131C12.0383 10.6317 12.0294 10.6492 12.0209 10.666C11.9728 10.7609 11.9374 10.8308 11.8557 10.9229C11.8236 10.9591 11.7904 10.9982 11.7572 11.0372C11.6911 11.1151 11.625 11.1929 11.5674 11.2483C11.4712 11.3409 11.3711 11.4414 11.4832 11.6273C11.5953 11.8133 11.981 12.4214 12.5523 12.9139C13.1664 13.4433 13.7002 13.667 13.9708 13.7804C14.0236 13.8026 14.0664 13.8205 14.0978 13.8357C14.2899 13.9287 14.402 13.9131 14.5141 13.7892C14.6263 13.6653 14.9946 13.2469 15.1227 13.061C15.2508 12.8751 15.3789 12.9061 15.5551 12.968C15.7313 13.0301 16.6761 13.4793 16.8683 13.5723C16.9058 13.5904 16.9409 13.6068 16.9734 13.622Z" fill="#757575"/>
</svg>
